<?xml version="1.0" standalone="no"?>
<!DOCTYPE svg PUBLIC "-//W3C//DTD SVG 20010904//EN"
 "http://www.w3.org/TR/2001/REC-SVG-20010904/DTD/svg10.dtd">
<svg version="1.0" xmlns="http://www.w3.org/2000/svg"
 width="512.000000pt" height="512.000000pt" viewBox="0 0 512.000000 512.000000"
 preserveAspectRatio="xMidYMid meet">

<g transform="translate(0.000000,512.000000) scale(0.100000,-0.100000)"
fill="#000000" stroke="none">
<path d="M1110 4449 c-239 -26 -451 -139 -591 -314 -29 -36 -57 -65 -62 -65
-5 0 -61 17 -124 37 -183 58 -193 48 -193 -197 0 -254 30 -569 65 -695 5 -15
-2 -25 -23 -37 -53 -31 -115 -102 -144 -165 -71 -150 -33 -336 90 -444 41 -36
147 -89 179 -89 18 0 25 -10 38 -57 57 -198 205 -406 369 -518 l59 -40 -124
-6 c-144 -7 -204 -24 -287 -79 -85 -57 -140 -128 -183 -235 -23 -59 -24 -66
-27 -447 l-3 -388 25 -25 c23 -23 33 -25 111 -25 96 0 121 9 136 47 20 54 -23
103 -92 103 l-30 0 3 328 3 327 26 55 c32 66 87 123 154 158 46 24 62 26 202
30 l152 4 11 -43 c28 -105 98 -199 192 -259 128 -83 297 -93 432 -26 119 59
221 182 242 293 l7 35 151 -4 c142 -3 155 -5 208 -31 70 -34 131 -101 158
-173 19 -51 20 -77 20 -374 l0 -320 -789 0 c-782 0 -789 0 -815 -21 -33 -26
-36 -79 -6 -109 20 -20 33 -20 868 -20 840 0 848 0 870 20 22 21 22 23 22 398
0 345 -3 405 -24 468 -6 21 -4 22 116 26 77 3 139 11 165 21 l43 16 -19 -37
c-48 -94 -51 -124 -51 -507 l0 -362 23 -21 23 -22 1007 0 c1001 0 1007 0 1027
20 20 20 21 29 18 408 l-3 387 -28 59 c-15 32 -26 60 -25 62 2 1 30 -4 63 -12
36 -8 115 -14 197 -14 l137 0 21 27 c21 27 21 33 18 323 -4 314 -7 329 -63
441 -42 84 -130 174 -229 234 -14 9 -14 14 -1 50 17 48 19 144 4 200 -6 22
-22 60 -37 85 -25 43 -25 49 -23 205 3 250 -36 447 -95 473 -35 17 -47 15 -78
-9 -31 -25 -32 -42 -5 -145 14 -53 23 -125 26 -216 l6 -138 -254 0 c-140 0
-273 5 -297 10 -165 38 -278 166 -305 345 -10 60 -18 81 -36 96 -27 22 -41 23
-75 8 -30 -14 -43 -45 -49 -120 -11 -122 -101 -244 -224 -302 l-68 -32 -279
-3 -279 -3 6 148 c6 171 19 229 82 360 129 266 396 452 677 470 l87 6 7 -27
c8 -32 39 -56 74 -56 30 0 70 37 70 65 0 16 7 17 88 12 106 -7 184 -27 279
-72 95 -45 152 -84 240 -167 81 -76 113 -86 151 -45 40 43 30 77 -45 151 -119
119 -258 201 -432 253 -86 26 -96 26 -351 26 -14 0 -77 0 -140 0 -140 1 -241
-23 -377 -88 -232 -113 -417 -315 -502 -551 -49 -136 -62 -227 -60 -430 1
-146 -2 -186 -14 -205 -8 -13 -19 -32 -24 -43 -9 -16 -11 -13 -18 20 -11 61
-54 142 -100 191 l-43 45 -4 226 c-4 190 -8 239 -26 304 -99 362 -367 634
-723 734 -83 23 -116 27 -279 29 -102 2 -223 -1 -270 -6z m442 -153 c282 -56
507 -230 627 -487 64 -136 73 -182 78 -392 l5 -188 -583 3 -584 3 -67 26 c-91
35 -160 82 -214 143 -50 57 -98 150 -110 210 -9 49 -44 86 -81 86 -57 0 -194
-186 -250 -339 l-28 -76 -11 54 c-20 89 -35 245 -41 440 l-6 183 24 -7 c13 -4
60 -18 105 -32 106 -34 123 -29 169 47 110 181 318 308 540 329 137 14 348 12
427 -3z m-924 -889 c93 -166 278 -288 478 -317 39 -5 301 -10 600 -10 l530 0
51 -25 c76 -38 123 -115 123 -199 0 -124 -86 -218 -212 -232 -33 -4 -68 -14
-78 -23 -11 -9 -27 -52 -39 -101 -72 -290 -281 -507 -578 -596 -76 -23 -106
-27 -223 -27 -117 0 -147 4 -223 27 -157 47 -262 112 -373 228 -108 113 -174
236 -208 386 -18 77 -38 102 -81 102 -44 0 -118 24 -154 49 -69 49 -105 160
-81 245 25 89 118 165 202 166 78 0 91 15 123 143 21 82 93 237 110 237 2 0
17 -24 33 -53z m3085 -226 c27 -46 127 -133 193 -168 100 -53 162 -63 407 -63
232 0 264 -5 315 -53 70 -65 82 -180 26 -259 -35 -49 -83 -77 -153 -85 -28 -3
-58 -11 -66 -17 -9 -6 -25 -47 -36 -91 -81 -320 -345 -540 -673 -561 -275 -18
-552 138 -678 382 -26 49 -55 124 -66 167 -24 91 -43 117 -86 117 -120 0 -209
89 -208 206 0 58 17 96 59 136 55 53 83 58 321 58 232 0 286 8 387 54 67 31
147 96 192 156 21 28 40 50 43 50 3 0 13 -13 23 -29z m-1149 -568 c3 -4 -21
-24 -54 -45 -113 -74 -201 -198 -235 -333 -11 -44 -15 -115 -15 -276 l0 -218
-50 34 c-90 60 -151 78 -292 83 l-126 4 78 59 c162 122 297 319 349 509 12 44
14 46 63 58 91 21 196 105 236 188 l17 36 11 -47 c7 -26 15 -49 18 -52z m140
-159 c26 -15 66 -32 88 -39 37 -11 42 -16 58 -66 9 -30 27 -78 40 -107 19 -45
22 -64 17 -130 -9 -140 -70 -249 -178 -321 -78 -52 -143 -71 -241 -71 l-79 0
3 243 3 242 32 67 c42 88 136 181 209 208 1 0 23 -12 48 -26z m2067 -3 c56
-35 114 -93 144 -146 45 -77 55 -142 55 -373 l0 -214 -97 4 c-84 3 -108 8
-165 35 -92 43 -151 100 -195 191 -33 66 -38 85 -41 166 -3 74 -1 99 13 127
10 18 27 62 39 97 21 62 23 64 72 81 28 9 66 27 85 39 19 12 36 22 40 22 3 0
25 -13 50 -29z m-1663 -500 c31 -27 84 -66 117 -87 l60 -39 -145 -6 c-80 -4
-153 -10 -164 -14 -11 -5 -17 -4 -14 1 2 5 20 43 41 84 20 41 37 82 37 92 0
10 3 18 6 18 3 0 31 -22 62 -49z m1232 21 c0 -10 18 -53 39 -95 29 -57 35 -77
23 -71 -9 4 -81 9 -159 12 -79 2 -143 7 -143 11 0 3 19 16 43 29 23 12 74 49
112 81 70 59 85 65 85 33z m-2776 -280 c-24 -75 -106 -161 -178 -185 -130 -45
-271 -1 -346 108 -30 43 -59 129 -48 141 4 3 42 -2 85 -12 107 -25 319 -24
423 3 41 10 77 15 78 11 2 -5 -4 -34 -14 -66z m1984 53 c46 -8 110 -15 142
-15 56 0 210 23 245 36 16 7 17 0 13 -77 -9 -167 -105 -268 -256 -269 -104 0
-179 44 -227 132 -23 43 -30 69 -33 137 -4 77 -3 84 13 77 10 -3 56 -13 103
-21z m-260 -137 c25 -135 108 -243 230 -301 62 -30 75 -32 172 -32 97 0 110 2
172 32 123 58 205 166 230 302 l12 63 130 -4 c152 -5 202 -22 273 -96 78 -80
83 -108 83 -457 l0 -305 -900 0 -900 0 0 299 c0 253 3 307 17 351 29 89 125
178 218 201 17 4 80 7 141 8 l110 1 12 -62z"/>
<path d="M790 2920 c-18 -18 -20 -33 -20 -135 0 -105 2 -116 22 -135 27 -25
69 -26 99 -1 23 18 24 25 24 134 0 99 -3 118 -19 136 -25 27 -79 28 -106 1z"/>
<path d="M1667 2922 c-14 -15 -17 -41 -17 -135 0 -104 2 -119 20 -137 25 -25
74 -26 99 -1 26 26 34 73 30 170 -3 60 -9 84 -23 100 -25 27 -86 29 -109 3z"/>
<path d="M1046 2479 c-22 -17 -26 -28 -26 -72 1 -216 267 -327 438 -182 62 52
105 170 82 225 -15 36 -57 54 -93 41 -30 -12 -42 -31 -51 -85 -10 -56 -56 -96
-108 -96 -71 0 -109 34 -124 114 -7 38 -44 76 -74 76 -10 0 -29 -9 -44 -21z"/>
<path d="M3176 2821 c-34 -37 -12 -121 31 -121 9 0 13 -16 13 -55 0 -46 4 -60
25 -80 13 -14 36 -25 50 -25 14 0 37 11 50 25 23 22 25 31 25 128 0 95 -2 105
-23 125 -32 30 -145 32 -171 3z"/>
<path d="M4030 2820 c-18 -18 -20 -33 -20 -129 0 -106 1 -110 26 -130 30 -24
43 -26 77 -10 32 14 47 49 47 104 0 33 4 45 14 45 21 0 46 40 46 72 0 48 -31
68 -105 68 -52 0 -69 -4 -85 -20z"/>
<path d="M3465 2415 c-29 -28 -31 -52 -9 -124 27 -93 131 -171 226 -171 92 0
192 64 229 145 40 86 16 175 -47 175 -44 0 -63 -18 -79 -75 -27 -92 -92 -121
-154 -69 -19 16 -33 39 -37 62 -14 77 -80 107 -129 57z"/>
</g>
</svg>
