<?xml version="1.0" standalone="no"?>
<!DOCTYPE svg PUBLIC "-//W3C//DTD SVG 20010904//EN"
 "http://www.w3.org/TR/2001/REC-SVG-20010904/DTD/svg10.dtd">
<svg version="1.0" xmlns="http://www.w3.org/2000/svg"
 width="512.000000pt" height="512.000000pt" viewBox="0 0 512.000000 512.000000"
 preserveAspectRatio="xMidYMid meet">

<g transform="translate(0.000000,512.000000) scale(0.100000,-0.100000)"
fill="#000000" stroke="none">
<path d="M2160 5067 c-25 -13 -58 -43 -75 -66 l-30 -43 -3 -200 -3 -200 -27 7
c-15 3 -48 20 -73 36 -55 35 -98 37 -126 7 -77 -84 1 -166 215 -224 9 -3 12
-62 12 -254 0 -287 7 -272 -96 -215 -74 41 -94 43 -130 11 -37 -31 -38 -84 -4
-121 27 -29 153 -95 181 -95 36 0 49 -12 49 -45 l0 -33 -47 15 c-27 8 -75 20
-107 26 l-59 13 -36 90 c-143 355 -420 590 -785 665 -135 28 -380 23 -496 -11
-216 -62 -374 -199 -458 -397 -96 -228 -75 -655 50 -983 81 -213 190 -395 400
-667 63 -81 134 -174 158 -207 49 -65 52 -56 -30 -106 -64 -38 -119 -117 -130
-183 -11 -68 -20 -87 -60 -120 -45 -39 -105 -44 -209 -18 -108 26 -135 26
-176 1 -67 -42 -65 -12 -65 -797 0 -786 -2 -762 65 -840 19 -22 58 -51 87 -64
51 -23 63 -24 268 -24 142 0 229 4 256 12 56 18 122 78 150 137 21 46 24 65
24 192 0 305 41 515 143 734 l35 75 6 -50 c57 -436 208 -663 492 -735 183 -47
420 -12 619 92 155 80 311 231 385 371 14 26 27 47 30 47 3 0 16 -21 30 -47
74 -140 230 -291 385 -371 199 -104 436 -139 619 -92 284 72 435 299 492 735
l6 50 35 -75 c102 -219 143 -429 143 -734 0 -127 3 -146 24 -192 28 -59 94
-119 150 -137 27 -8 114 -12 256 -12 205 0 217 1 268 24 29 13 68 42 87 64 67
78 65 54 65 840 0 785 2 755 -65 797 -41 25 -71 25 -175 -1 -99 -25 -158 -21
-206 16 -43 33 -53 52 -64 122 -11 66 -66 145 -130 183 -82 50 -79 41 -30 106
24 33 95 126 158 207 210 272 319 454 400 667 125 328 146 755 50 983 -84 198
-242 335 -458 397 -116 34 -361 39 -496 11 -365 -75 -642 -310 -785 -665 l-36
-90 -59 -13 c-32 -6 -80 -18 -106 -26 l-48 -15 0 33 c0 33 13 45 49 45 28 0
154 66 181 95 46 49 24 126 -41 140 -21 5 -43 -2 -92 -29 -104 -58 -97 -74
-97 214 0 192 3 251 13 254 89 24 131 41 171 67 79 53 94 115 39 159 -35 28
-68 25 -122 -9 -25 -16 -58 -33 -73 -36 l-28 -7 0 189 c0 179 -1 192 -23 234
-13 24 -43 58 -66 74 -39 27 -50 30 -119 30 -43 0 -128 -7 -190 -15 -95 -12
-129 -12 -220 -1 -205 26 -242 25 -292 -2z m283 -168 c98 -11 136 -11 235 0
64 8 140 14 167 15 l50 1 3 -71 3 -71 -58 -16 c-176 -49 -392 -49 -565 0 l-58
16 0 67 c0 37 3 70 7 74 8 8 24 7 216 -15z m-73 -335 c145 -24 320 -17 498 22
l33 7 -3 -124 -3 -124 -90 -24 c-76 -20 -114 -24 -245 -24 -131 0 -169 4 -245
24 l-90 24 -3 124 -3 124 33 -7 c18 -4 71 -14 118 -22z m-1338 -303 c135 -35
259 -98 360 -183 84 -70 193 -226 239 -340 l18 -47 -54 -25 c-71 -32 -136 -93
-172 -163 -47 -90 -56 -146 -50 -307 8 -215 54 -368 162 -542 25 -40 45 -74
45 -77 0 -2 -14 -10 -30 -17 -26 -11 -33 -10 -49 4 -27 25 -83 21 -111 -9 -22
-24 -23 -28 -18 -172 5 -133 9 -158 38 -245 87 -261 281 -459 533 -543 59 -19
113 -28 212 -35 73 -5 174 -19 224 -30 l91 -22 0 -199 0 -200 -37 -76 c-72
-147 -192 -287 -320 -373 -131 -88 -262 -124 -428 -118 -99 4 -117 7 -182 37
-96 44 -161 114 -213 224 -54 114 -79 247 -90 480 -6 106 -15 217 -21 247 -47
249 -221 565 -513 935 -295 374 -415 611 -471 930 -24 140 -30 344 -11 443 44
242 200 398 444 442 79 15 317 3 404 -19z m3543 -1 c197 -62 323 -209 361
-422 19 -99 13 -303 -11 -443 -56 -319 -176 -555 -471 -930 -292 -371 -466
-688 -513 -935 -6 -30 -15 -141 -21 -247 -11 -233 -36 -366 -90 -480 -52 -110
-117 -180 -213 -224 -65 -30 -83 -33 -182 -37 -117 -4 -190 8 -299 48 -167 63
-358 251 -452 446 l-34 71 0 200 0 201 85 21 c47 12 148 25 224 31 105 7 159
15 218 35 252 84 446 282 533 543 29 87 33 112 38 245 5 144 4 148 -18 172
-28 30 -84 34 -111 9 -16 -14 -23 -15 -49 -4 -16 7 -30 15 -30 17 0 3 20 37
45 77 108 174 154 327 162 542 6 161 -3 217 -50 307 -36 70 -101 131 -172 163
l-54 25 18 47 c46 114 155 270 239 340 106 89 243 157 377 186 107 23 120 25
265 21 105 -2 151 -8 205 -25z m-2015 -133 c126 0 186 5 253 20 l87 19 0 -78
c0 -76 -1 -79 -27 -89 -155 -59 -447 -62 -608 -6 l-40 14 -3 80 -3 79 88 -19
c67 -15 127 -20 253 -20z m-180 -332 c154 -24 361 -14 488 24 l33 10 -3 -142
-3 -142 -62 -33 c-76 -40 -197 -72 -273 -72 -76 0 -197 32 -273 72 l-62 33 -3
142 -3 142 33 -10 c18 -5 76 -16 128 -24z m-435 -309 c44 -14 129 -53 189 -86
130 -71 195 -97 294 -116 129 -25 266 -12 393 35 30 12 104 48 165 81 142 78
242 110 364 117 88 5 97 3 130 -19 82 -56 104 -125 97 -298 -10 -255 -59 -361
-327 -720 -121 -162 -167 -234 -290 -458 -79 -142 -141 -217 -208 -251 -96
-49 -288 -49 -384 0 -67 34 -129 109 -208 251 -123 224 -169 296 -290 458
-268 359 -317 465 -327 720 -7 173 15 242 97 298 33 22 42 24 130 19 62 -3
122 -14 175 -31z m-194 -1131 c76 -99 142 -202 227 -358 45 -81 100 -173 123
-203 22 -31 39 -58 36 -60 -3 -3 -29 -1 -59 5 -177 32 -344 150 -443 311 -40
66 -82 186 -91 261 l-6 54 73 37 c56 27 76 33 84 24 6 -7 31 -39 56 -71z
m1825 -44 c-9 -75 -51 -195 -91 -261 -99 -161 -266 -279 -443 -311 -30 -6 -56
-8 -59 -5 -3 2 14 29 36 60 23 30 78 122 123 203 90 165 131 228 226 355 l65
87 74 -37 75 -37 -6 -54z m-2714 -434 c68 -119 148 -317 129 -317 -15 0 -155
154 -223 245 -65 86 -67 90 -50 108 17 19 67 46 87 47 6 0 31 -37 57 -83z
m3491 69 c18 -7 40 -22 49 -32 16 -19 14 -23 -47 -107 -65 -87 -211 -247 -226
-247 -8 0 24 101 55 172 27 63 120 228 129 228 4 0 22 -6 40 -14z m-3693 -283
c36 -53 182 -205 240 -249 28 -21 50 -41 50 -45 0 -3 -20 -36 -45 -73 -147
-220 -225 -535 -225 -914 0 -128 -1 -134 -25 -157 -24 -25 -25 -25 -224 -25
-110 0 -207 3 -216 6 -45 17 -45 25 -45 722 l0 659 67 -15 c139 -29 263 1 344
84 24 24 46 44 49 44 3 0 16 -17 30 -37z m3879 -7 c81 -83 205 -113 344 -84
l67 15 0 -659 c0 -697 0 -705 -45 -722 -9 -3 -106 -6 -216 -6 -199 0 -200 0
-224 25 -24 23 -25 29 -25 157 0 379 -78 694 -225 914 -25 37 -45 70 -45 73 0
4 22 24 50 45 58 44 204 196 240 249 14 20 27 37 30 37 3 0 25 -20 49 -44z"/>
<path d="M1605 1472 c-11 -2 -31 -14 -44 -25 -23 -22 -23 -24 -18 -162 12
-281 84 -452 205 -485 64 -17 189 4 272 46 164 82 244 276 168 406 -52 87
-146 148 -290 188 -73 20 -252 39 -293 32z m270 -203 c86 -27 137 -59 159
-100 l20 -36 -25 -49 c-35 -71 -87 -101 -202 -117 -38 -6 -39 -5 -58 37 -22
52 -45 148 -54 235 l-6 63 53 -7 c29 -4 80 -16 113 -26z"/>
<path d="M3397 1469 c-226 -19 -394 -97 -465 -217 -76 -130 4 -324 168 -406
84 -42 208 -63 274 -45 50 14 107 70 136 136 28 63 57 189 65 286 7 76 8 78
39 91 75 31 68 134 -11 155 -42 12 -63 12 -206 0z m8 -231 c-9 -86 -32 -183
-54 -234 -19 -42 -20 -43 -58 -37 -115 16 -167 46 -202 117 l-25 49 20 36 c23
44 117 94 214 115 114 25 112 26 105 -46z"/>
<path d="M2014 3086 c-34 -15 -58 -63 -47 -94 22 -63 94 -82 138 -37 65 64 -7
167 -91 131z"/>
<path d="M3050 3093 c-61 -22 -79 -95 -35 -138 44 -45 116 -26 138 37 11 32
-14 79 -49 94 -18 8 -35 14 -36 13 -2 0 -10 -3 -18 -6z"/>
<path d="M2165 2817 c-21 -17 -27 -32 -27 -62 0 -30 6 -45 27 -62 14 -13 35
-23 46 -23 28 0 75 26 83 45 34 89 -60 162 -129 102z"/>
<path d="M2845 2815 c-41 -40 -33 -105 16 -130 39 -21 64 -19 94 8 21 17 27
32 27 62 0 75 -85 113 -137 60z"/>
<path d="M2249 2471 c-37 -38 -38 -79 -3 -115 36 -35 77 -34 115 3 17 18 29
40 29 56 0 16 -12 38 -29 56 -18 17 -40 29 -56 29 -16 0 -38 -12 -56 -29z"/>
<path d="M2759 2471 c-17 -18 -29 -40 -29 -56 0 -37 50 -85 88 -85 39 0 82 43
82 82 0 38 -48 88 -85 88 -16 0 -38 -12 -56 -29z"/>
<path d="M2348 2144 c-48 -25 -54 -94 -12 -131 52 -47 134 -11 134 57 0 44
-15 66 -51 79 -39 13 -38 14 -71 -5z"/>
<path d="M2694 2146 c-17 -8 -34 -21 -38 -31 -33 -88 60 -163 128 -102 43 38
36 106 -14 132 -35 18 -36 18 -76 1z"/>
</g>
</svg>
