<?xml version="1.0" standalone="no"?>
<!DOCTYPE svg PUBLIC "-//W3C//DTD SVG 20010904//EN"
 "http://www.w3.org/TR/2001/REC-SVG-20010904/DTD/svg10.dtd">
<svg version="1.0" xmlns="http://www.w3.org/2000/svg"
 width="512.000000pt" height="512.000000pt" viewBox="0 0 512.000000 512.000000"
 preserveAspectRatio="xMidYMid meet">

<g transform="translate(0.000000,512.000000) scale(0.100000,-0.100000)"
fill="#000000" stroke="none">
<path d="M838 5104 c-35 -18 -48 -43 -48 -89 0 -65 69 -110 131 -85 39 16 59
46 59 88 0 44 -14 68 -50 87 -36 19 -57 18 -92 -1z"/>
<path d="M2196 5105 c-16 -9 -35 -23 -42 -33 -14 -18 -18 -70 -8 -97 4 -9 228
-215 498 -458 270 -243 501 -453 514 -467 78 -86 97 -219 46 -326 -38 -79
-152 -154 -235 -154 -17 0 -256 -38 -532 -85 -275 -47 -502 -85 -504 -85 -1 0
-4 249 -5 554 -3 542 -3 555 -24 582 -38 52 -103 56 -150 9 l-24 -24 0 -582
c0 -572 0 -584 21 -626 26 -53 69 -88 131 -104 44 -12 83 -7 560 74 l513 87
336 0 337 0 53 -28 c64 -33 105 -88 117 -153 10 -50 -3 -98 -30 -115 -7 -5
-200 -11 -428 -14 l-415 -5 -550 -228 c-302 -125 -577 -235 -610 -243 -80 -21
-223 -21 -304 1 -112 29 -198 79 -287 169 -83 83 -124 148 -160 256 -17 51
-19 112 -24 892 -5 825 -5 837 -26 864 -38 52 -103 56 -150 9 l-24 -24 0 -834
c0 -912 -2 -875 60 -1039 48 -129 185 -296 305 -372 l57 -37 -4 -257 -5 -257
-46 -160 c-96 -332 -129 -554 -128 -860 1 -210 11 -334 40 -500 21 -122 75
-340 93 -380 14 -30 55 -55 92 -55 31 0 82 42 90 75 4 15 -9 90 -33 188 -64
262 -81 406 -82 677 -1 276 34 511 117 791 54 184 63 250 64 468 l0 193 28 -7
c102 -26 292 -21 402 11 30 9 296 116 590 237 l535 222 415 6 c228 3 425 9
436 13 19 7 28 -3 80 -86 31 -51 71 -122 87 -158 29 -64 29 -65 13 -115 -32
-103 -118 -168 -237 -180 -94 -9 -158 -25 -211 -51 -100 -50 -196 -158 -229
-259 -14 -45 -20 -51 -50 -56 -63 -11 -109 -38 -175 -104 -37 -36 -75 -65 -85
-65 -17 0 -15 7 16 51 119 173 93 420 -60 574 -149 148 -355 177 -553 76 -61
-31 -147 -123 -182 -194 -56 -114 -64 -256 -21 -364 17 -44 21 -81 24 -220 3
-139 8 -180 27 -238 69 -216 211 -369 424 -457 328 -135 617 -90 776 120 l39
53 21 -40 c41 -80 156 -104 256 -53 183 94 188 349 11 539 -63 67 -176 133
-228 133 -20 0 -29 6 -34 23 -4 12 -13 36 -22 53 -38 74 52 220 157 256 25 9
84 20 131 25 104 12 196 51 263 113 l45 42 6 -26 c3 -14 7 -37 10 -50 17 -82
24 -267 15 -372 -31 -357 -158 -654 -395 -929 -97 -113 -129 -159 -167 -242
-48 -106 -58 -175 -58 -406 0 -207 0 -208 24 -232 47 -47 112 -43 150 9 19 25
21 46 27 244 7 276 18 310 157 475 147 174 201 254 280 412 133 268 189 532
179 848 -10 334 -100 618 -291 920 -49 78 -54 91 -45 115 6 15 10 59 10 98 -1
194 -147 367 -340 404 -29 5 -112 10 -183 10 -71 0 -128 3 -126 8 2 4 15 30
30 57 37 72 50 127 49 219 0 102 -27 193 -81 274 -30 44 -167 174 -545 513
-278 250 -518 459 -533 466 -36 16 -42 16 -76 -2z m561 -2769 c119 -61 175
-213 123 -334 -40 -92 -144 -162 -240 -162 -138 0 -260 127 -260 269 0 44 31
125 62 161 23 27 86 71 115 80 42 14 163 6 200 -14z m574 -590 c15 -33 -19
-105 -69 -144 -47 -38 -139 -83 -222 -111 -75 -25 -81 -28 -103 -61 -33 -48
-11 -117 44 -140 41 -18 128 4 254 64 106 50 180 107 232 176 43 58 64 62 122
26 83 -53 146 -176 121 -236 -16 -38 -31 -38 -54 1 -22 36 -96 86 -142 95 -66
12 -142 -31 -187 -109 -98 -166 -304 -201 -557 -97 -179 74 -280 185 -325 356
-13 50 -20 124 -12 124 1 0 27 -10 57 -22 39 -15 81 -22 145 -24 54 -1 120
-10 165 -23 91 -26 214 -28 290 -5 43 13 66 29 121 85 73 75 102 85 120 45z"/>
</g>
</svg>
